<svg width="58" height="67" viewBox="0 0 58 67" fill="none" xmlns="http://www.w3.org/2000/svg">
<path d="M51.069 12.5781L50.6851 3.62189C50.6436 2.56334 49.5957 1.82651 48.5892 2.14823L40.5896 4.68044C35.4329 2.62561 30.4837 2.32465 28.6991 2.32465C26.9145 2.32465 21.9653 2.63599 16.8086 4.68044L8.80894 2.14823C7.79212 1.82651 6.75456 2.55297 6.71305 3.62189L6.32915 12.5781C3.77674 16.1377 2.08551 20.9012 2.08551 27.3147C2.08551 46.4205 20.0147 59.9949 26.4476 64.2498C27.8275 65.1631 29.6018 65.1631 30.9713 64.2498C37.4043 59.9949 55.3334 46.4205 55.3334 27.3147C55.3334 20.9012 53.6318 16.1377 51.0898 12.5781H51.069Z" fill="#233D4C"/>
<path d="M49.99 21.7418C49.7098 20.237 49.1703 18.8048 48.3921 17.4868C47.6347 16.2 46.6594 15.0584 45.5077 14.0932C44.3456 13.1177 43.0383 12.3601 41.6272 11.8412C40.1746 11.3016 38.639 11.0318 37.0723 11.0318C33.9907 11.0318 31.0232 12.1318 28.6887 14.0725C26.3542 12.1318 23.3868 11.0318 20.3052 11.0318C17.2236 11.0318 14.4948 12.028 12.1914 13.8338C7.8959 17.2066 6.22542 23.0079 7.60539 29.7432C8.59107 34.5482 11.2161 38.9173 15.024 42.041C18.863 45.1959 23.7084 46.9394 28.6887 46.9394C29.6537 46.9394 30.6186 46.8772 31.5732 46.7423C32.9635 46.5555 34.3435 46.2337 35.6612 45.7771C36.9581 45.3309 38.2136 44.7601 39.4068 44.0751C40.5792 43.4006 41.6998 42.6015 42.727 41.7193C43.7542 40.8372 44.6984 39.8513 45.5388 38.7928C46.3792 37.7238 47.1366 36.5822 47.7592 35.3784C48.4025 34.1538 48.9213 32.8669 49.3155 31.5489C49.7202 30.1998 49.9796 28.7988 50.1145 27.3978C50.1767 26.7024 50.2182 26.0798 50.239 25.4986C50.2805 24.108 50.1975 22.8834 49.99 21.7522V21.7418Z" fill="white"/>
<path d="M19.3195 26.3288C22.0127 26.3288 24.1961 24.1451 24.1961 21.4512C24.1961 18.7574 22.0127 16.5736 19.3195 16.5736C16.6262 16.5736 14.4429 18.7574 14.4429 21.4512C14.4429 24.1451 16.6262 26.3288 19.3195 26.3288Z" fill="#233D4C"/>
<path d="M38.0787 26.3288C40.7719 26.3288 42.9552 24.1451 42.9552 21.4512C42.9552 18.7574 40.7719 16.5736 38.0787 16.5736C35.3854 16.5736 33.2021 18.7574 33.2021 21.4512C33.2021 24.1451 35.3854 26.3288 38.0787 26.3288Z" fill="#233D4C"/>
<path d="M28.6991 23.5787C28.118 23.5787 25.0883 23.807 25.0883 26.9619C25.0883 29.1932 26.8833 30.864 27.9417 31.6527C28.3878 31.9848 29 31.9848 29.4565 31.6527C30.5148 30.864 32.3098 29.1932 32.3098 26.9619C32.3098 23.807 29.2801 23.5787 28.6991 23.5787Z" fill="#FF601F"/>
<path d="M53.1234 11.8827L52.7602 3.52843C52.7083 2.37648 52.1377 1.3283 51.1935 0.664116C50.2389 -7.19922e-05 49.0665 -0.176497 47.9667 0.165975L40.6518 2.48026C34.9348 0.352778 29.7159 0.238621 28.6991 0.238621C27.6823 0.238621 22.4633 0.352778 16.7359 2.48026L9.43147 0.176353C8.33165 -0.176497 7.14883 -7.19922e-05 6.20464 0.664116C5.26046 1.3283 4.67942 2.37648 4.63792 3.52843L4.27477 11.8827C1.43184 16.0961 0 21.2747 0 27.3147C0 47.1054 17.6801 60.9496 25.2855 65.9725C26.323 66.6575 27.5162 66.9999 28.6991 66.9999C29.8819 66.9999 31.0751 66.6575 32.1023 65.9725C39.7076 60.9496 57.3981 47.1054 57.3981 27.3147C57.3981 21.2747 55.9559 16.0961 53.1234 11.8827ZM30.961 64.2498C29.5914 65.1527 27.8068 65.1527 26.4372 64.2498C20.0043 59.9948 2.07513 46.4205 2.07513 27.3147C2.07513 20.9011 3.77674 16.1273 6.31878 12.578L6.70268 3.62183C6.75455 2.56328 7.79212 1.82645 8.80893 2.14816L16.8086 4.68038C21.9653 2.62555 26.9145 2.31421 28.6991 2.31421C30.4837 2.31421 35.4329 2.62555 40.5896 4.68038L48.5892 2.14816C49.606 1.82645 50.6436 2.56328 50.6851 3.62183L51.069 12.578C53.6214 16.1273 55.323 20.9011 55.323 27.3147C55.323 46.4205 37.3939 59.9948 30.961 64.2498Z" fill="white"/>
</svg>
